<svg xmlns="http://www.w3.org/2000/svg" width="62" height="360" viewBox="0 -30 62 360"><path fill="#DE5959" d="M25.38 225.28h-7.03c-.04-3.16 1.15-5.79 3.57-7.88 2.38-2.09 5.52-3.13 9.43-3.13 2.5 0 4.63.43 6.41 1.279 1.78.86 3.2 2.091 4.25 3.711 1.051 1.619 1.58 3.34 1.58 5.14a8.65 8.65 0 0 1-.5 2.88c-.34.94-.869 1.9-1.609 2.87-.44.59-1.471 1.56-3.11 2.92-1.53 1.32-2.478 2.26-2.87 2.79-.391.54-.729 1.25-1 2.14-.275.897-.45 2.13-.525 3.73H26.7v-1.141c0-2.189.44-4.189 1.32-6 .88-1.8 2.29-3.51 4.24-5.109 1.87-1.53 3.01-2.58 3.4-3.15.39-.563.58-1.26.58-2.06 0-1.04-.48-1.931-1.44-2.66-.96-.73-2.239-1.09-3.84-1.09-1.64 0-2.99.439-4.04 1.33-1.05.89-1.59 2.05-1.59 3.47h.01l.04-.04zm4.98 20.25c1.32 0 2.451.41 3.371 1.23.92.819 1.369 1.819 1.369 3.01 0 1.189-.459 2.189-1.379 3.029-.921.841-2.021 1.25-3.311 1.25s-2.38-.409-3.28-1.25c-.9-.829-1.35-1.84-1.35-3.02s.45-2.18 1.35-3 1.97-1.23 3.22-1.23l.01-.019zM31-.19l-3.316-2.75-11.57 11.843H45.59L34.234-2.96 31-.19zm4.891-4.026L46.893 7.222c.062-.22.107-.452.107-.694v-19.773L35.891-4.216zM15-13.29V6.528c0 .242.045.473.107.694l11.04-11.4L15-13.292v.002zm31-1.817H16l15 12.02 15-12.02zM44.395 45.59a11.455 11.455 0 0 1-3.31.902 5.77 5.77 0 0 0 2.535-3.166 11.686 11.686 0 0 1-3.662 1.39 5.79 5.79 0 0 0-4.21-1.81c-3.188 0-5.77 2.564-5.77 5.726 0 .446.05.888.148 1.308a16.443 16.443 0 0 1-11.887-5.98 5.64 5.64 0 0 0-.785 2.875 5.724 5.724 0 0 0 2.567 4.768 5.728 5.728 0 0 1-2.612-.719v.075c0 2.772 1.99 5.083 4.627 5.612a5.86 5.86 0 0 1-2.605.096 5.776 5.776 0 0 0 5.39 3.979 11.642 11.642 0 0 1-8.538 2.366 16.392 16.392 0 0 0 8.84 2.572c10.611 0 16.413-8.725 16.413-16.286 0-.25-.009-.493-.019-.737a11.848 11.848 0 0 0 2.878-2.971v-.002.002zm-.885 57.804l-30.133 11.622c-2.057.824-2.044 1.973-.375 2.482l7.516 2.347 2.875 8.814c.35.966.177 1.351 1.19 1.351.782 0 1.13-.356 1.564-.782l3.758-3.654 7.818 5.775c1.438.792 2.479.38 2.834-1.338l5.133-24.184c.525-2.105-.803-3.06-2.18-2.436v.003zm-21.813 15.913l16.94-10.688c.846-.515 1.62-.24.984.326l-14.503 13.087-.564 6.024-2.857-8.749zm9.198 39.853c-9.728 0-17.613 7.804-17.613 17.43 0 8.19 5.71 15.058 13.403 16.925-.002-2.156-.008-6.254-.01-6.403-.032-.021-3.34 1.897-5.026-1.454-.205-.415-.614-1.8-1.64-2.574-.037-.029-.794-.413-.863-.788-.008-.053.05-.164.123-.189.078-.028 1.324-.535 2.713 1.21.42.582 1.364 2.823 4.674 1.438.088-.345.41-1.136 1.125-1.775-4.928-.583-6.986-2.024-7.685-6.194-.436-2.843.402-5.204 1.662-6.37-.192-.25-.82-2.326.156-4.522 1.06-.212 3.002.54 4.708 1.758 2.408-.86 6.325-1.068 8.548 0 .768-.628 3.514-2.099 4.689-1.756.348.872.846 2.985.156 4.525 1.533 1.563 1.967 3.58 1.689 6.061-.34 3.756-2.492 6.055-7.714 6.5.87.605 2.069 1.689 2.069 3.104 0 1.521.002 5.166 0 7.25 7.293-2.134 12.442-8.835 12.442-16.739.003-9.631-7.883-17.434-17.61-17.434h.004zM36.457 299.832a5.468 5.468 0 0 0-5.458-5.458c-3.005 0-5.458 2.452-5.458 5.458s2.453 5.458 5.458 5.458a5.468 5.468 0 0 0 5.458-5.458zm2.943 0c0 4.647-3.754 8.399-8.401 8.399s-8.4-3.752-8.4-8.399 3.752-8.4 8.4-8.4 8.401 3.752 8.401 8.4zm2.303-8.742a1.957 1.957 0 0 1-1.961 1.962 1.957 1.957 0 0 1-1.961-1.962c0-1.085.874-1.96 1.961-1.96 1.086 0 1.961.875 1.961 1.96zm-10.704-4.691c-2.388 0-7.504-.192-9.658.66-.747.299-1.3.66-1.876 1.236s-.939 1.13-1.237 1.877c-.852 2.152-.66 7.27-.66 9.658 0 2.387-.192 7.505.66 9.657.299.747.661 1.301 1.237 1.877s1.129.938 1.876 1.236c2.154.853 7.27.66 9.658.66 2.389 0 7.505.192 9.659-.66.746-.299 1.299-.66 1.875-1.236s.939-1.13 1.238-1.877c.852-2.152.658-7.271.658-9.657 0-2.389.193-7.506-.658-9.658-.301-.747-.662-1.301-1.238-1.877s-1.129-.938-1.875-1.236c-2.154-.852-7.27-.66-9.659-.66zm16.374 13.433c0 2.26.023 4.499-.105 6.759-.129 2.623-.725 4.946-2.643 6.865-1.92 1.918-4.244 2.516-6.865 2.643-2.26.128-4.499.106-6.759.106s-4.499.021-6.759-.106c-2.623-.129-4.946-.725-6.865-2.643-1.919-1.919-2.516-4.242-2.643-6.865-.128-2.26-.106-4.499-.106-6.759s-.021-4.499.106-6.759c.128-2.622.724-4.946 2.643-6.865 1.918-1.918 4.242-2.516 6.865-2.644 2.26-.128 4.5-.105 6.759-.105s4.499-.022 6.759.105c2.621.129 4.945.726 6.865 2.644 1.918 1.919 2.516 4.243 2.643 6.865.128 2.26.105 4.499.105 6.759z"/></svg>