<svg xmlns="http://www.w3.org/2000/svg" width="64" height="64" viewBox="0 0 64 64"><path fill="#FA0" d="M60 0H4C1.79 0 0 1.79 0 4v56c0 2.21 1.79 4 4 4h56c2.21 0 4-1.79 4-4V4c0-2.21-1.79-4-4-4zm1 57.375C61 59.377 59.377 61 57.375 61H6.625C4.623 61 3 59.377 3 57.375V6.625C3 4.623 4.623 3 6.625 3h50.75C59.377 3 61 4.623 61 6.625v50.75z"/><path fill="#FA0" d="M3 38.167h58v12H3zM56.834 31.417c0 1.427-1.156 2.583-2.583 2.583h-8.5c-1.427 0-2.583-1.156-2.583-2.583 0-1.427 1.156-2.583 2.583-2.583h8.5c1.428 0 2.584 1.156 2.584 2.583z"/></svg>